<?xml version="1.0" encoding="UTF-8" standalone="no"?>
<!DOCTYPE svg PUBLIC "-//W3C//DTD SVG 1.1//EN"
 "http://www.w3.org/Graphics/SVG/1.1/DTD/svg11.dtd">
<!-- Generated by graphviz version 5.0.0 (20220707.1540)
 -->
<!-- Title: StorageDiagram Pages: 1 -->
<svg width="1073pt" height="195pt"
 viewBox="0.00 0.00 1072.55 195.40" xmlns="http://www.w3.org/2000/svg" xmlns:xlink="http://www.w3.org/1999/xlink">
<g id="graph0" class="graph" transform="scale(1 1) rotate(0) translate(4 191.4)">
<title>StorageDiagram</title>
<polygon fill="white" stroke="transparent" points="-4,4 -4,-191.4 1068.55,-191.4 1068.55,4 -4,4"/>
<!-- 2 -->
<g id="node1" class="node">
<title>2</title>
<polygon fill="#f2f2f2" stroke="black" points="0,-62.9 0,-186.9 426.86,-186.9 426.86,-62.9 0,-62.9"/>
<text text-anchor="middle" x="213.43" y="-170.3" font-family="Courier New" font-size="14.00">ProductTracker &lt;&lt;Contract&gt;&gt;</text>
<polyline fill="none" stroke="black" points="0,-162.1 426.86,-162.1 "/>
<text text-anchor="middle" x="24.8" y="-145.5" font-family="Courier New" font-size="14.00">slot</text>
<polyline fill="none" stroke="black" points="0,-137.3 49.61,-137.3 "/>
<text text-anchor="middle" x="24.8" y="-120.7" font-family="Courier New" font-size="14.00">0</text>
<polyline fill="none" stroke="black" points="0,-112.5 49.61,-112.5 "/>
<text text-anchor="middle" x="24.8" y="-95.9" font-family="Courier New" font-size="14.00">1</text>
<polyline fill="none" stroke="black" points="0,-87.7 49.61,-87.7 "/>
<text text-anchor="middle" x="24.8" y="-71.1" font-family="Courier New" font-size="14.00">2</text>
<polyline fill="none" stroke="black" points="49.61,-62.9 49.61,-162.1 "/>
<text text-anchor="middle" x="238.23" y="-145.5" font-family="Courier New" font-size="14.00">type: &lt;inherited contract&gt;.variable (bytes)</text>
<polyline fill="none" stroke="black" points="49.61,-137.3 426.86,-137.3 "/>
<text text-anchor="middle" x="238.22" y="-120.7" font-family="Courier New" font-size="14.00">uint256: productId (32)</text>
<polyline fill="none" stroke="black" points="49.61,-112.5 426.86,-112.5 "/>
<text text-anchor="middle" x="238.22" y="-95.9" font-family="Courier New" font-size="14.00">uint256: activeProducts (32)</text>
<polyline fill="none" stroke="black" points="49.61,-87.7 426.86,-87.7 "/>
<text text-anchor="middle" x="238.13" y="-71.1" font-family="Courier New" font-size="14.00">mapping(uint256=&gt;Product): products (32)</text>
</g>
<!-- 1 -->
<g id="node2" class="node">
<title>1</title>
<polygon fill="#f2f2f2" stroke="black" points="462.86,-0.5 462.86,-149.3 1064.55,-149.3 1064.55,-0.5 462.86,-0.5"/>
<text text-anchor="middle" x="763.71" y="-132.7" font-family="Courier New" font-size="14.00">Product &lt;&lt;Struct&gt;&gt;</text>
<polyline fill="none" stroke="black" points="462.86,-124.5 1064.55,-124.5 "/>
<text text-anchor="middle" x="496.07" y="-107.9" font-family="Courier New" font-size="14.00">offset</text>
<polyline fill="none" stroke="black" points="462.86,-99.7 529.27,-99.7 "/>
<text text-anchor="middle" x="496.07" y="-83.1" font-family="Courier New" font-size="14.00">0</text>
<polyline fill="none" stroke="black" points="462.86,-74.9 529.27,-74.9 "/>
<text text-anchor="middle" x="496.07" y="-58.3" font-family="Courier New" font-size="14.00">1</text>
<polyline fill="none" stroke="black" points="462.86,-50.1 529.27,-50.1 "/>
<text text-anchor="middle" x="496.07" y="-33.5" font-family="Courier New" font-size="14.00">2</text>
<polyline fill="none" stroke="black" points="462.86,-25.3 529.27,-25.3 "/>
<text text-anchor="middle" x="496.07" y="-8.7" font-family="Courier New" font-size="14.00">3</text>
<polyline fill="none" stroke="black" points="529.27,-0.5 529.27,-124.5 "/>
<text text-anchor="middle" x="796.91" y="-107.9" font-family="Courier New" font-size="14.00">type: variable (bytes)</text>
<polyline fill="none" stroke="black" points="529.27,-99.7 1064.55,-99.7 "/>
<text text-anchor="middle" x="796.69" y="-83.1" font-family="Courier New" font-size="14.00">uint256: quantity (32)</text>
<polyline fill="none" stroke="black" points="529.27,-74.9 1064.55,-74.9 "/>
<text text-anchor="middle" x="796.6" y="-58.3" font-family="Courier New" font-size="14.00">bytes32: characterizationHash (32)</text>
<polyline fill="none" stroke="black" points="529.27,-50.1 1064.55,-50.1 "/>
<text text-anchor="middle" x="796.89" y="-33.5" font-family="Courier New" font-size="14.00">uint256: timestamp (32)</text>
<polyline fill="none" stroke="black" points="529.27,-25.3 1064.55,-25.3 "/>
<text text-anchor="middle" x="604.48" y="-8.7" font-family="Courier New" font-size="14.00">unallocated (11)</text>
<polyline fill="none" stroke="black" points="679.69,-0.5 679.69,-25.3 "/>
<text text-anchor="middle" x="754.91" y="-8.7" font-family="Courier New" font-size="14.00">bool: exists (1)</text>
<polyline fill="none" stroke="black" points="830.12,-0.5 830.12,-25.3 "/>
<text text-anchor="middle" x="947.33" y="-8.7" font-family="Courier New" font-size="14.00">address: currentOwner (20)</text>
</g>
<!-- 2&#45;&gt;1 -->
<g id="edge1" class="edge">
<title>2:8&#45;&gt;1</title>
<path fill="none" stroke="black" d="M426.86,-74.9C435.25,-74.9 443.74,-74.9 452.32,-74.9"/>
<polygon fill="black" stroke="black" points="452.42,-78.4 462.42,-74.9 452.42,-71.4 452.42,-78.4"/>
</g>
</g>
</svg>
