<?xml version="1.0" encoding="UTF-8" standalone="no"?>
<!DOCTYPE svg PUBLIC "-//W3C//DTD SVG 1.1//EN"
 "http://www.w3.org/Graphics/SVG/1.1/DTD/svg11.dtd">
<!-- Generated by graphviz version 5.0.0 (20220707.1540)
 -->
<!-- Title: StorageDiagram Pages: 1 -->
<svg width="922pt" height="208pt"
 viewBox="0.00 0.00 922.13 207.80" xmlns="http://www.w3.org/2000/svg" xmlns:xlink="http://www.w3.org/1999/xlink">
<g id="graph0" class="graph" transform="scale(1 1) rotate(0) translate(4 203.8)">
<title>StorageDiagram</title>
<polygon fill="white" stroke="transparent" points="-4,4 -4,-203.8 918.13,-203.8 918.13,4 -4,4"/>
<!-- 2 -->
<g id="node1" class="node">
<title>2</title>
<polygon fill="#f2f2f2" stroke="black" points="0,-75.3 0,-199.3 426.86,-199.3 426.86,-75.3 0,-75.3"/>
<text text-anchor="middle" x="213.43" y="-182.7" font-family="Courier New" font-size="14.00">ProductTracker &lt;&lt;Contract&gt;&gt;</text>
<polyline fill="none" stroke="black" points="0,-174.5 426.86,-174.5 "/>
<text text-anchor="middle" x="24.8" y="-157.9" font-family="Courier New" font-size="14.00">slot</text>
<polyline fill="none" stroke="black" points="0,-149.7 49.61,-149.7 "/>
<text text-anchor="middle" x="24.8" y="-133.1" font-family="Courier New" font-size="14.00">0</text>
<polyline fill="none" stroke="black" points="0,-124.9 49.61,-124.9 "/>
<text text-anchor="middle" x="24.8" y="-108.3" font-family="Courier New" font-size="14.00">1</text>
<polyline fill="none" stroke="black" points="0,-100.1 49.61,-100.1 "/>
<text text-anchor="middle" x="24.8" y="-83.5" font-family="Courier New" font-size="14.00">2</text>
<polyline fill="none" stroke="black" points="49.61,-75.3 49.61,-174.5 "/>
<text text-anchor="middle" x="238.23" y="-157.9" font-family="Courier New" font-size="14.00">type: &lt;inherited contract&gt;.variable (bytes)</text>
<polyline fill="none" stroke="black" points="49.61,-149.7 426.86,-149.7 "/>
<text text-anchor="middle" x="238.22" y="-133.1" font-family="Courier New" font-size="14.00">uint256: productId (32)</text>
<polyline fill="none" stroke="black" points="49.61,-124.9 426.86,-124.9 "/>
<text text-anchor="middle" x="238.22" y="-108.3" font-family="Courier New" font-size="14.00">uint256: activeProducts (32)</text>
<polyline fill="none" stroke="black" points="49.61,-100.1 426.86,-100.1 "/>
<text text-anchor="middle" x="238.13" y="-83.5" font-family="Courier New" font-size="14.00">mapping(uint256=&gt;Product): products (32)</text>
</g>
<!-- 1 -->
<g id="node2" class="node">
<title>1</title>
<polygon fill="#f2f2f2" stroke="black" points="462.86,-0.5 462.86,-174.1 914.13,-174.1 914.13,-0.5 462.86,-0.5"/>
<text text-anchor="middle" x="688.5" y="-157.5" font-family="Courier New" font-size="14.00">Product &lt;&lt;Struct&gt;&gt;</text>
<polyline fill="none" stroke="black" points="462.86,-149.3 914.13,-149.3 "/>
<text text-anchor="middle" x="496.07" y="-132.7" font-family="Courier New" font-size="14.00">offset</text>
<polyline fill="none" stroke="black" points="462.86,-124.5 529.27,-124.5 "/>
<text text-anchor="middle" x="496.07" y="-107.9" font-family="Courier New" font-size="14.00">0</text>
<polyline fill="none" stroke="black" points="462.86,-99.7 529.27,-99.7 "/>
<text text-anchor="middle" x="496.07" y="-83.1" font-family="Courier New" font-size="14.00">1</text>
<polyline fill="none" stroke="black" points="462.86,-74.9 529.27,-74.9 "/>
<text text-anchor="middle" x="496.07" y="-58.3" font-family="Courier New" font-size="14.00">2</text>
<polyline fill="none" stroke="black" points="462.86,-50.1 529.27,-50.1 "/>
<text text-anchor="middle" x="496.07" y="-33.5" font-family="Courier New" font-size="14.00">3</text>
<polyline fill="none" stroke="black" points="462.86,-25.3 529.27,-25.3 "/>
<text text-anchor="middle" x="496.07" y="-8.7" font-family="Courier New" font-size="14.00">4</text>
<polyline fill="none" stroke="black" points="529.27,-0.5 529.27,-149.3 "/>
<text text-anchor="middle" x="721.7" y="-132.7" font-family="Courier New" font-size="14.00">type: variable (bytes)</text>
<polyline fill="none" stroke="black" points="529.27,-124.5 914.13,-124.5 "/>
<text text-anchor="middle" x="721.69" y="-107.9" font-family="Courier New" font-size="14.00">uint256: quantity (32)</text>
<polyline fill="none" stroke="black" points="529.27,-99.7 914.13,-99.7 "/>
<text text-anchor="middle" x="721.6" y="-83.1" font-family="Courier New" font-size="14.00">bytes32: characterizationHash (32)</text>
<polyline fill="none" stroke="black" points="529.27,-74.9 914.13,-74.9 "/>
<text text-anchor="middle" x="604.48" y="-58.3" font-family="Courier New" font-size="14.00">unallocated (12)</text>
<polyline fill="none" stroke="black" points="679.69,-50.1 679.69,-74.9 "/>
<text text-anchor="middle" x="796.91" y="-58.3" font-family="Courier New" font-size="14.00">address: currentOwner (20)</text>
<polyline fill="none" stroke="black" points="529.27,-50.1 914.13,-50.1 "/>
<text text-anchor="middle" x="721.39" y="-33.5" font-family="Courier New" font-size="14.00">uint256: timestamp (32)</text>
<polyline fill="none" stroke="black" points="529.27,-25.3 914.13,-25.3 "/>
<text text-anchor="middle" x="625.48" y="-8.7" font-family="Courier New" font-size="14.00">unallocated (31)</text>
<polyline fill="none" stroke="black" points="721.69,-0.5 721.69,-25.3 "/>
<text text-anchor="middle" x="817.91" y="-8.7" font-family="Courier New" font-size="14.00">bool: exists (1)</text>
</g>
<!-- 2&#45;&gt;1 -->
<g id="edge1" class="edge">
<title>2:8&#45;&gt;1</title>
<path fill="none" stroke="black" d="M426.86,-87.3C435.24,-87.3 443.76,-87.3 452.38,-87.3"/>
<polygon fill="black" stroke="black" points="452.52,-90.8 462.52,-87.3 452.52,-83.8 452.52,-90.8"/>
</g>
</g>
</svg>
